:SAMPLES-PER-SECOND 30
:FULLY-SPECIFIED
:DEGREES
1
root  22.6515 39.8445 2.27311 -20.4477 -86.5424 19.4492
RightUpLeg  1.30147 -9.06965 -7.44186
RightLeg  2.90858 7.05443 -0.506323
RightFoot  -3.7265 -0.331829 4.65605
RightToes  5.47152e-009 0 -3.6325e-017
Spine  7.48088 -0.528148 -1.00195
Spine1  -4.21118 -0.694654 0.66186
HEad  -11.9038 -3.70267 -2.41938
LeftShoulder1  0.185931 1.53079 -1.1017
LeftArm  -22.8511 -0.681782 -9.92374
LeftForeArm  -5.42057 2.39754 3.05614
LeftHand  -0.0564089 3.70314 2.64357
RightShoulder  0.0165869 -3.27217 -5.23931
RightArm  -9.10745 2.21291 6.79321
RightForeArm  -2.82724 -2.68802 -2.6421
RightHand  0.0221044 3.59279 0.0328816
LeftUpLeg  -2.56745 7.46052 4.21079
LeftLeg  2.31062 -0.36243 -0.268315
LeftFoot  1.41472 0.149445 -1.51813
LeftToes  -4.29285e-010 1.49941e-010 2.15559e-012
2
root  22.6278 39.8445 2.28036 -21.111 -86.6062 20.194
RightUpLeg  1.28725 -9.04387 -7.44852
RightLeg  2.79908 7.07609 -0.550607
RightFoot  -3.70788 -0.338242 4.75565
RightToes  5.47152e-009 0 -3.6325e-017
Spine  7.3789 -0.492439 -0.957453
Spine1  -4.15384 -0.630602 0.48302
HEad  -11.693 -3.71353 -2.45239
LeftShoulder1  0.196458 1.38119 -0.911512
LeftArm  -22.8403 -0.509891 -10.0507
LeftForeArm  -5.37366 2.29989 3.06321
LeftHand  -0.0549316 3.80648 2.64805
RightShoulder  0.0165163 -3.35462 -5.08595
RightArm  -9.0704 2.36556 6.72097
RightForeArm  -2.98886 -2.72473 -2.60251
RightHand  0.0152476 3.46404 -0.0476935
LeftUpLeg  -2.63493 7.46818 4.16849
LeftLeg  2.36909 -0.187842 -0.273602
LeftFoot  1.37287 0.140878 -1.38497
LeftToes  -4.29285e-010 1.49941e-010 2.15559e-012
3
root  22.6063 39.8445 2.28967 -21.3152 -86.6127 20.461
RightUpLeg  1.27622 -9.02635 -7.46586
RightLeg  2.75434 7.07098 -0.578723
RightFoot  -3.79009 -0.355569 5.02477
RightToes  5.47152e-009 0 -3.6325e-017
Spine  7.55206 -0.50269 -1.03102
Spine1  -4.4305 -0.640154 0.461482
HEad  -11.6105 -3.71627 -2.61787
LeftShoulder1  0.203119 1.27352 -0.740477
LeftArm  -22.8371 -0.238436 -10.1853
LeftForeArm  -5.58476 2.19916 3.07924
LeftHand  -0.0670939 3.6701 3.38886
RightShoulder  0.0164267 -3.34384 -4.80712
RightArm  -8.7833 2.52158 6.41851
RightForeArm  -3.23484 -2.6927 -2.45884
RightHand  0.00746669 3.3558 -0.143194
LeftUpLeg  -2.69967 7.46444 4.15045
LeftLeg  2.44667 -0.195972 -0.288959
LeftFoot  1.29894 0.140787 -1.38355
LeftToes  -4.29285e-010 1.49941e-010 2.15559e-012
4
root  22.5826 39.8445 2.30311 -20.5063 -86.5492 19.6932
RightUpLeg  1.30377 -9.05003 -7.46929
RightLeg  2.71303 7.02042 -0.567244
RightFoot  -3.75457 -0.348766 4.91909
RightToes  5.47152e-009 0 -3.6325e-017
Spine  7.64456 -0.558267 -1.06745
Spine1  -4.55738 -0.707405 0.541175
HEad  -11.6072 -3.23865 -2.98193
LeftShoulder1  0.190605 1.3986 -0.682088
LeftArm  -22.8578 -0.334779 -10.2868
LeftForeArm  -5.57487 2.23027 3.07582
LeftHand  -0.0653343 3.88411 3.62463
RightShoulder  0.016394 -3.44177 -4.77303
RightArm  -8.73834 2.67143 6.37294
RightForeArm  -3.35908 -2.61515 -2.40129
RightHand  0.00649587 3.53441 -0.165637
LeftUpLeg  -2.69598 7.40882 4.13701
LeftLeg  2.40378 -0.269336 -0.251072
LeftFoot  1.24795 0.150952 -1.54156
LeftToes  -4.29285e-010 1.49941e-010 2.15559e-012
5
root  22.5612 39.8445 2.31066 -20.7317 -86.5424 19.9615
RightUpLeg  1.29405 -9.04777 -7.48567
RightLeg  2.69993 7.04156 -0.578341
RightFoot  -3.65441 -0.339636 4.77729
RightToes  5.47152e-009 0 -3.6325e-017
Spine  7.70119 -0.58039 -1.13793
Spine1  -4.63784 -0.729959 0.514331
HEad  -11.5725 -3.20709 -2.83619
LeftShoulder1  0.191379 1.36479 -0.55849
LeftArm  -22.7305 -0.165974 -10.3532
LeftForeArm  -5.43318 2.13738 3.01312
LeftHand  -0.0650754 3.82798 3.37477
RightShoulder  0.0164079 -3.38327 -4.77565
RightArm  -8.88529 2.70835 6.41346
RightForeArm  -3.36546 -2.78377 -2.47161
RightHand  0.0122905 3.49922 -0.088644
LeftUpLeg  -2.75887 7.40806 4.09326
LeftLeg  2.50256 -0.220252 -0.253675
LeftFoot  1.21357 0.137716 -1.33581
LeftToes  -4.29285e-010 1.49941e-010 2.15559e-012
6
root  22.5383 39.8445 2.31794 -20.9964 -86.5637 20.1877
RightUpLeg  1.40808 -9.07038 -7.52847
RightLeg  2.63305 7.05041 -0.577211
RightFoot  -3.7718 -0.349747 4.93434
RightToes  5.47152e-009 0 -3.6325e-017
Spine  7.78694 -0.640606 -1.22983
Spine1  -4.64741 -0.804879 0.566188
HEad  -11.4983 -3.2519 -2.6837
LeftShoulder1  0.180408 1.47062 -0.465146
LeftArm  -22.7786 -0.120904 -10.4681
LeftForeArm  -5.3961 2.25008 3.07623
LeftHand  -0.0630753 3.89896 3.23619
RightShoulder  0.0164474 -3.21022 -4.78172
RightArm  -8.98278 2.7527 6.39156
RightForeArm  -2.84196 -2.83398 -2.54195
RightHand  0.0294378 3.68573 0.120426
LeftUpLeg  -2.68975 7.38686 4.07234
LeftLeg  2.53343 -0.157235 -0.209979
LeftFoot  1.15223 0.142932 -1.41689
LeftToes  -4.29285e-010 1.49941e-010 2.15559e-012
7
root  22.5145 39.8462 2.32702 -20.5777 -86.6014 19.8217
RightUpLeg  1.39401 -9.06084 -7.49942
RightLeg  2.6243 7.09796 -0.57039
RightFoot  -3.79458 -0.346557 4.88479
RightToes  5.47152e-009 0 -3.6325e-017
Spine  7.73595 -0.662417 -1.20578
Spine1  -4.59908 -0.826608 0.57208
HEad  -11.6705 -2.93689 -2.76479
LeftShoulder1  0.178791 1.47772 -0.531689
LeftArm  -22.7193 -0.0465122 -10.4155
LeftForeArm  -5.61301 2.2032 3.04302
LeftHand  -0.0600809 3.97551 3.18997
RightShoulder  0.0165567 -3.09147 -4.90162
RightArm  -8.97086 2.63357 6.38552
RightForeArm  -2.48769 -2.81385 -2.5748
RightHand  0.0504617 3.65904 0.390212
LeftUpLeg  -2.69468 7.42327 4.13616
LeftLeg  2.53609 -0.258749 -0.25332
LeftFoot  1.05415 0.15539 -1.61056
LeftToes  -4.29285e-010 1.49941e-010 2.15559e-012
8
root  22.4934 39.852 2.33789 -21.1562 -86.5656 20.4568
RightUpLeg  1.3829 -9.13729 -7.59076
RightLeg  2.60614 7.16855 -0.534831
RightFoot  -3.73022 -0.347147 4.89395
RightToes  5.47152e-009 0 -3.6325e-017
Spine  7.75486 -0.730718 -1.15516
Spine1  -4.66928 -0.867193 0.399526
HEad  -11.627 -3.09697 -2.67658
LeftShoulder1  0.17713 1.43611 -0.613559
LeftArm  -22.6238 -0.0528003 -10.2529
LeftForeArm  -5.9144 2.25138 2.98499
LeftHand  -0.0539313 4.03847 3.5283
RightShoulder  0.0169464 -2.91973 -5.10252
RightArm  -8.914 2.33878 6.58007
RightForeArm  -2.82506 -2.74317 -2.57699
RightHand  0.0216671 3.48639 0.0361916
LeftUpLeg  -2.70824 7.33156 4.01274
LeftLeg  2.49569 -0.099328 -0.195732
LeftFoot  1.08743 0.140788 -1.38356
LeftToes  -4.29285e-010 1.49941e-010 2.15559e-012
9
root  22.4735 39.8526 2.34799 -21.7926 -86.6203 21.1874
RightUpLeg  1.27705 -9.15769 -7.61342
RightLeg  2.62544 7.24032 -0.526443
RightFoot  -3.67889 -0.33423 4.69334
RightToes  5.47152e-009 0 -3.6325e-017
Spine  7.6899 -0.730726 -1.23064
Spine1  -4.61671 -0.873634 0.436144
HEad  -11.1935 -3.16867 -2.81916
LeftShoulder1  0.175921 1.5281 -0.716848
LeftArm  -22.8027 -0.264994 -10.255
LeftForeArm  -5.97329 2.4421 3.08315
LeftHand  -0.0534899 4.43078 3.9711
RightShoulder  0.0171148 -3.06966 -5.08076
RightArm  -8.76895 2.55613 6.57626
RightForeArm  -3.09378 -2.78458 -2.46957
RightHand  0.0105572 3.6567 -0.12017
LeftUpLeg  -2.73852 7.27892 3.95344
LeftLeg  2.4384 0.028987 -0.163702
LeftFoot  1.07503 0.142764 -1.36141
LeftToes  -4.29285e-010 1.49941e-010 2.15559e-012
10
root  22.4533 39.8477 2.35114 -22.2336 -86.6634 21.7154
RightUpLeg  1.22092 -9.10453 -7.60356
RightLeg  2.60718 7.19761 -0.576411
RightFoot  -3.85009 -0.35489 5.01422
RightToes  5.47152e-009 0 -3.6325e-017
Spine  7.47857 -0.73658 -1.18845
Spine1  -4.31877 -0.850386 0.232403
HEad  -11.2749 -3.33597 -2.63101
LeftShoulder1  0.175938 1.48866 -0.641506
LeftArm  -22.8919 -0.283049 -10.2918
LeftForeArm  -5.55977 2.4547 3.16029
LeftHand  -0.059193 3.86821 3.12877
RightShoulder  0.0168345 -3.13892 -4.92614
RightArm  -8.69619 2.6026 6.448
RightForeArm  -3.47272 -2.81278 -2.40736
RightHand  0.00679293 3.68641 -0.171331
LeftUpLeg  -2.78949 7.28098 3.93481
LeftLeg  2.40898 0.125874 -0.167215
LeftFoot  1.03171 0.168493 -1.61234
LeftToes  -4.29285e-010 1.49941e-010 2.15559e-012
11
root  22.43 39.8495 2.3547 -22.7239 -86.6909 22.2579
RightUpLeg  1.24484 -9.08727 -7.61649
RightLeg  2.49674 7.22012 -0.611385
RightFoot  -3.81758 -0.361645 5.11915
RightToes  5.47152e-009 0 -3.6325e-017
Spine  7.32711 -0.783275 -1.20628
Spine1  -4.06464 -0.885224 0.136585
HEad  -11.3663 -3.29276 -2.48081
LeftShoulder1  0.178205 1.5572 -0.774
LeftArm  -22.9249 -0.415508 -10.0617
LeftForeArm  -5.18874 2.58972 3.19544
LeftHand  -0.0511778 3.64094 2.23217
RightShoulder  0.0159502 -3.16165 -4.83548
RightArm  -8.87255 2.64521 6.42429
RightForeArm  -3.23207 -2.71719 -2.46666
RightHand  0.0261463 3.96344 0.0581955
LeftUpLeg  -2.80895 7.27894 3.92279
LeftLeg  2.43831 0.10915 -0.172985
LeftFoot  1.01887 0.157675 -1.51407
LeftToes  -4.29285e-010 1.49941e-010 2.15559e-012
12
root  22.4067 39.8537 2.3574 -22.2951 -86.6915 21.8415
RightUpLeg  1.31032 -9.04791 -7.5713
RightLeg  2.41466 7.1592 -0.650631
RightFoot  -3.79712 -0.354207 5.00361
RightToes  5.47152e-009 0 -3.6325e-017
Spine  7.41418 -0.772762 -1.22531
Spine1  -4.13736 -0.874039 0.122971
HEad  -11.5018 -3.44997 -2.39738
LeftShoulder1  0.184882 1.48723 -0.809662
LeftArm  -22.9036 -0.415261 -10.0312
LeftForeArm  -5.66607 2.53158 3.14892
LeftHand  -0.0547026 4.04971 3.04936
RightShoulder  0.0146505 -3.22076 -4.83511
RightArm  -8.86775 2.58961 6.38992
RightForeArm  -2.8787 -2.68826 -2.49177
RightHand  0.0357671 3.81096 0.189784
LeftUpLeg  -2.80764 7.30583 3.94279
LeftLeg  2.4975 0.105408 -0.181466
LeftFoot  0.964198 0.136767 -1.3179
LeftToes  -4.29285e-010 1.49941e-010 2.15559e-012
13
root  22.3774 39.855 2.35581 -22.6723 -86.8361 22.2669
RightUpLeg  1.33162 -8.97742 -7.48863
RightLeg  2.28475 7.18314 -0.701922
RightFoot  -3.75626 -0.348227 4.91073
RightToes  5.47152e-009 0 -3.6325e-017
Spine  7.34623 -0.629723 -1.54358
Spine1  -4.04595 -0.814975 0.60922
HEad  -11.6036 -3.5673 -2.47661
LeftShoulder1  0.185954 1.53018 -1.09835
LeftArm  -22.8917 -0.548605 -9.98173
LeftForeArm  -5.54164 2.49806 3.11309
LeftHand  -0.054995 3.93374 2.90475
RightShoulder  0.0133476 -3.21484 -5.27731
RightArm  -8.9416 2.3078 6.63529
RightForeArm  -3.17336 -2.56738 -2.53369
RightHand  0.0187399 3.83866 -0.0273859
LeftUpLeg  -2.83926 7.37548 4.01854
LeftLeg  2.61462 0.106786 -0.209743
LeftFoot  0.853917 0.134992 -1.32963
LeftToes  -4.29285e-010 1.49941e-010 2.15559e-012
